<svg width="356" height="433" viewBox="0 0 356 433" fill="none" xmlns="http://www.w3.org/2000/svg">
<g clip-path="url(#clip0_1_128)">
<path d="M333.499 311.428L101.626 279.339C93.8657 278.265 87.4606 272.698 85.3075 265.155L32.0524 78.5211C30.2479 72.1955 31.5951 65.6455 35.7486 60.549C39.9021 55.4525 46.0388 52.8187 52.5917 53.3194L286.204 71.2406C294.656 71.8887 301.75 77.848 303.859 86.0682L355.375 286.871C357.019 293.279 355.375 300.052 350.977 304.989C347.19 309.241 341.819 311.616 336.221 311.616C335.318 311.616 334.409 311.554 333.499 311.428Z" fill="#DBDBDB"/>
<path d="M274.864 269.676L201.32 259.498C198.858 259.157 196.827 257.391 196.144 254.999L179.253 195.803C178.68 193.797 179.107 191.719 180.425 190.103C181.742 188.486 183.689 187.651 185.767 187.81L259.863 193.494C262.544 193.699 264.794 195.59 265.463 198.197L281.803 261.887C282.324 263.919 281.803 266.067 280.408 267.633C279.207 268.982 277.503 269.735 275.728 269.735C275.441 269.735 275.153 269.716 274.864 269.676Z" fill="#EBEFFF"/>
<path d="M268.285 105.443L131.76 92.8601C128.318 92.5428 125.64 90.9589 125.79 89.3295C125.939 87.7001 128.862 86.6331 132.304 86.9503L268.828 99.5334C272.27 99.8507 274.947 101.434 274.798 103.063C274.648 104.693 271.727 105.76 268.285 105.443Z" fill="#EBEFFF"/>
<path d="M275.729 141.373L139.205 128.79C135.763 128.473 133.084 126.889 133.234 125.259C133.384 123.63 136.306 122.563 139.748 122.88L276.273 135.463C279.714 135.781 282.392 137.364 282.242 138.993C282.092 140.623 279.171 141.69 275.729 141.373Z" fill="#EBEFFF"/>
<path d="M278.359 172.689L141.834 160.106C138.392 159.789 135.714 158.205 135.863 156.575C136.013 154.946 138.935 153.879 142.377 154.196L278.902 166.779C282.344 167.097 285.021 168.68 284.871 170.309C284.722 171.939 281.8 173.006 278.359 172.689Z" fill="#EBEFFF"/>
<path d="M196.095 157.562C199.522 153.824 204.226 152.564 206.602 154.748C208.977 156.932 208.125 161.733 204.696 165.472C203.347 166.984 201.656 168.151 199.764 168.875L185.045 184.531L177.855 177.458L193.129 162.775C193.688 160.825 194.705 159.038 196.095 157.562Z" fill="#FFB6B6"/>
<path d="M112.179 161.046C112.179 161.046 120.78 153.169 131.073 160.047C141.366 166.924 165.334 184.516 165.334 184.516L182.129 163.66L195.363 175.671C195.363 175.671 172.019 216.843 156.937 207.781C141.854 198.72 108.184 172.853 109.713 167.5C111.242 162.148 112.179 161.046 112.179 161.046V161.046Z" fill="#FEC652"/>
<path d="M175.868 353.198L162.164 378.767L150.877 365.09L163.861 347.523L175.868 353.198Z" fill="#FFB6B6"/>
<path d="M167.006 375.233L161.207 406.603C161.207 406.603 157.315 417.482 151.06 406.431C144.804 395.381 133.477 372.517 139.989 368.327C146.501 364.137 154.366 360.751 154.366 360.751L167.006 375.233H167.006Z" fill="#2F2E41"/>
<path d="M183.955 381.043L198.413 407.101L180.34 409.273L172.388 388.282L183.955 381.043Z" fill="#FFB6B6"/>
<path d="M107.327 145.073C107.327 145.073 105.881 159.55 103.712 160.997C101.544 162.445 129.025 160.997 129.025 160.997L121.062 145.073H107.327Z" fill="#FFB6B6"/>
<path d="M136.961 165.352L126.845 157.378H102.113L85.64 171.131L96.122 219.99L91.0617 243.876L155.4 246.048L143.834 224.333C143.834 224.333 157.569 209.856 153.231 200.446C148.894 191.036 136.961 165.352 136.961 165.352Z" fill="#FEC652"/>
<path d="M148.894 240.257L158.292 245.324C158.292 245.324 208.895 293.097 204.557 307.574C200.22 322.051 171.304 363.309 171.304 363.309L157.569 356.071L177.81 311.917L139.135 273.192L159.896 309.836L189.376 387.196L172.027 394.434L127.207 303.955C127.207 303.955 90.3388 278.621 88.1701 262.696C86.0014 246.772 91.0617 243.876 91.0617 243.876L148.894 240.257Z" fill="#2F2E41"/>
<path d="M198.051 400.949L221.907 423.387C221.907 423.387 229.136 432.797 216.124 432.074C203.112 431.35 177.087 428.454 177.087 420.492C177.087 412.53 178.533 403.844 178.533 403.844L198.051 400.949Z" fill="#2F2E41"/>
<path d="M114.556 148.692C123.739 148.692 131.183 141.238 131.183 132.044C131.183 122.849 123.739 115.396 114.556 115.396C105.373 115.396 97.9293 122.849 97.9293 132.044C97.9293 141.238 105.373 148.692 114.556 148.692Z" fill="#FFB6B6"/>
<path d="M186.684 198.472L172.982 240.257C172.616 241.371 171.668 242.192 170.514 242.393L144.309 246.956C141.959 247.366 140.017 245.126 140.751 242.854L154.436 200.502C154.805 199.359 155.788 198.523 156.974 198.342L183.197 194.346C185.532 193.99 187.421 196.226 186.684 198.472Z" fill="white"/>
<path d="M143.753 247.728C142.638 247.728 141.578 247.251 140.827 246.385C139.926 245.345 139.64 243.942 140.063 242.632L153.748 200.279C154.205 198.866 155.399 197.849 156.865 197.627L183.088 193.631C184.434 193.425 185.764 193.925 186.645 194.966C187.524 196.007 187.796 197.403 187.371 198.698L173.668 240.483C173.219 241.853 172.058 242.859 170.638 243.107L144.433 247.67C144.205 247.709 143.978 247.728 143.753 247.728L143.753 247.728ZM183.68 195.033C183.556 195.033 183.431 195.042 183.306 195.061L157.083 199.057C156.161 199.197 155.41 199.836 155.124 200.724L141.475 242.967C141.224 243.742 141.306 244.613 141.787 245.27C142.35 246.038 143.264 246.401 144.185 246.243L154.701 244.412C165.247 242.576 173.923 235.066 177.263 224.882L185.971 198.326C186.191 197.657 186.164 196.912 185.817 196.299C185.361 195.493 184.549 195.033 183.68 195.033Z" fill="#3F3D56"/>
<path d="M146.682 231.024C151.746 231.212 155.755 233.981 155.635 237.208C155.515 240.435 151.313 242.898 146.247 242.709C144.222 242.662 142.238 242.129 140.461 241.157L119.014 240.09L119.728 230.023L140.796 232.144C142.64 231.305 144.659 230.921 146.682 231.024Z" fill="#FFB6B6"/>
<path d="M89.6159 169.321C89.6159 169.321 101.182 170.769 102.628 183.074C104.074 195.379 106.243 225.057 106.243 225.057L132.99 224.333L132.441 242.209C132.441 242.209 86.0014 251.115 83.1098 233.743C80.2182 216.371 78.0495 173.932 83.1098 171.627C88.1701 169.321 89.6159 169.321 89.6159 169.321Z" fill="#FEC652"/>
<path d="M181.743 204.933L157.092 207.012C156.47 207.065 155.922 206.601 155.87 205.979C155.817 205.357 156.28 204.808 156.902 204.755L181.553 202.676C182.174 202.623 182.722 203.087 182.774 203.709C182.827 204.331 182.364 204.88 181.743 204.933Z" fill="#3F3D56"/>
<path d="M179.574 212.171L154.923 214.251C154.302 214.303 153.753 213.84 153.701 213.217C153.649 212.595 154.112 212.046 154.733 211.994L179.384 209.914C180.005 209.861 180.553 210.325 180.606 210.947C180.658 211.569 180.195 212.118 179.574 212.171Z" fill="#3F3D56"/>
<path d="M177.405 219.409L152.754 221.489C152.133 221.541 151.585 221.078 151.532 220.456C151.48 219.833 151.943 219.285 152.564 219.232L177.215 217.152C177.837 217.1 178.385 217.563 178.437 218.186C178.489 218.808 178.027 219.357 177.405 219.409Z" fill="#3F3D56"/>
<path d="M110.106 138.03L121.738 124.657L119.799 119.016L126.043 124.958L129.266 124.081C129.266 124.081 129.239 112.629 120.106 112.112C110.973 111.594 104.422 112.558 104.422 112.558C104.422 112.558 91.364 116.655 90.8535 119.795C90.3429 122.935 83.0275 127.108 83.0275 127.108C83.0275 127.108 76.6802 131.836 79.6474 139.76C82.6146 147.684 89.3852 157.574 84.6984 162.396C80.0116 167.218 73.3886 170.929 76.6156 172.78C79.8427 174.631 85.6635 165.954 90.9646 169.423C96.2657 172.892 105.223 186.827 113.626 179.63C122.028 172.434 123.582 164.098 123.582 164.098L110.172 150.829C110.172 150.829 102.048 136.954 110.106 138.03V138.03Z" fill="#2F2E41"/>
</g>
<defs>
<clipPath id="clip0_1_128">
<rect width="356" height="432.113" fill="white"/>
</clipPath>
</defs>
</svg>
